<svg version="1.1" id="下载" xmlns="http://www.w3.org/2000/svg"
                         xmlns:xlink="http://www.w3.org/1999/xlink" x="0px" y="0px"
                         width="100px" height="100px" viewBox="0 0 100 100"
                         xml:space="preserve">
<path d="M49.86,14.14c13.1,0,24.71,8.44,28.76,20.9c13.5,3.37,21.72,17.05,18.35,30.55C94.4,75.9,85.64,83.49,75.06,84.56
	l-0.01,0.13H24.67v-0.13C10.82,83.18,0.72,70.84,2.1,56.99c1.06-10.6,8.66-19.38,19-21.95C25.15,22.58,36.76,14.14,49.86,14.14z
	 M49.86,21.7c-9.43,0-17.88,5.83-21.21,14.65l-0.35,1.02l-1.3,4l-4.08,1.01c-9.45,2.36-15.2,11.95-12.84,21.4
	c1.72,6.87,7.38,12.05,14.38,13.15l0.96,0.12l0.91,0.09H73.4l0.91-0.09c8.64-0.87,15.36-7.91,15.84-16.58l0.03-0.97
	c0-7.74-5.05-14.58-12.45-16.86l-0.92-0.25l-4.07-1.01l-1.3-4C68.4,28.03,59.69,21.7,49.86,21.7L49.86,21.7z"/>
                        <path  d="M49.86,35.56c1.89,0,3.49,1.39,3.74,3.27l0.04,0.51V56.1l2.69-2.69c1.34-1.34,3.45-1.48,4.96-0.34l0.39,0.34
	c1.34,1.34,1.48,3.45,0.34,4.96l-0.34,0.39l-9.26,9.26c-1.34,1.34-3.45,1.48-4.96,0.34l-0.39-0.34l-9.27-9.26
	c-1.48-1.47-1.49-3.86-0.02-5.34c1.34-1.35,3.47-1.49,4.98-0.34l0.39,0.34l2.94,2.94V39.34C46.08,37.25,47.77,35.56,49.86,35.56
	L49.86,35.56L49.86,35.56z"/>
</svg>