<svg version="1.1" id="暂停" xmlns="http://www.w3.org/2000/svg"
	xmlns:xlink="http://www.w3.org/1999/xlink" x="0px" y="0px"
	width="100px" height="100px" viewBox="0 0 100 100" style="enable-background:new 0 0 100 100;"
	xml:space="preserve">
<path d="M26.72,9.21h-7.59c-2.6,0-4.71,2.11-4.71,4.71v72.17c0,2.6,2.11,4.71,4.71,4.71h7.59c2.6,0,4.71-2.11,4.71-4.71V13.92
	C31.43,11.32,29.32,9.21,26.72,9.21z M77.68,9.21H70.1c-2.6,0-4.71,2.11-4.71,4.71v72.17c0,2.6,2.11,4.71,4.71,4.71h7.59
	c2.6,0,4.71-2.11,4.71-4.71V13.92C82.39,11.32,80.28,9.21,77.68,9.21z"/>
</svg>