 <svg version="1.1" id="设置" xmlns="http://www.w3.org/2000/svg"
                         xmlns:xlink="http://www.w3.org/1999/xlink" x="0px" y="0px"
                         width="100px" height="100px" viewBox="0 0 100 100"
                         xml:space="preserve">
                        <g transform="matrix(-1,1.7320507764816284,-1.7320507764816284,-1,95.56922149658203,12.430780410766602)">
	<g transform="matrix(1,0,0,1,23.988000869750977,24.02400016784668)">
		<path d="M7.75-32.08l9.69,5.6c2.49,1.44,4.02,4.09,4.02,6.96v11.19c0,2.87-1.53,5.53-4.02,6.96l-9.69,5.6
			c-2.49,1.44-5.55,1.44-8.04,0l-9.69-5.6C-12.47-2.8-14-5.45-14-8.33l0-11.19c0-2.87,1.53-5.53,4.02-6.96l9.69-5.6
			C2.2-33.51,5.27-33.51,7.75-32.08z M-2.73-36.3l-9.69,5.6c-4,2.31-6.46,6.57-6.46,11.19v11.19c0,4.62,2.46,8.88,6.46,11.19
			l9.69,5.6c4,2.31,8.92,2.31,12.92,0l9.69-5.6c4-2.31,6.46-6.57,6.46-11.19v-11.19c0-4.62-2.46-8.88-6.46-11.19l-9.69-5.6
			C6.19-38.61,1.27-38.61-2.73-36.3z"/>
	</g>
</g>
                        <g transform="matrix(2,0,0,2,-18,-18)">
	<g transform="matrix(1,0,0,1,23.98900032043457,24.02400016784668)">
		<path  d="M6.36,10.25c0-2.12,1.72-3.83,3.83-3.83s3.83,1.71,3.83,3.83s-1.71,3.83-3.83,3.83S6.36,12.36,6.36,10.25z
			 M1.48,10.25c0,4.81,3.9,8.72,8.71,8.72s8.71-3.9,8.71-8.72c0-4.81-3.9-8.71-8.71-8.71S1.48,5.44,1.48,10.25z"/>
	</g>
</g>
</svg>