<svg viewBox="0 0 1035 1024" version="1.1" xmlns="http://www.w3.org/2000/svg"
             width="16" height="16">
            <path
                d="M868.248009 806.105382c17.398599 17.398599 17.398599 45.612844 0 63.011443-8.699299 8.699299-20.105295 13.054519-31.500152 13.054519s-22.800853-4.355219-31.500152-13.054519L517.491363 581.360484 229.735022 869.116825c-8.699299 8.699299-20.105295 13.054519-31.500153 13.054519s-22.800853-4.355219-31.500152-13.054519c-17.398599-17.398599-17.398599-45.612844 0-63.011443l287.745203-287.756341-287.756342-287.756342c-17.398599-17.398599-17.398599-45.612844 0-63.011443s45.612844-17.398599 63.011444 0l287.756341 287.756341 287.745203-287.745203c17.398599-17.398599 45.612844-17.398599 63.011443 0s17.398599 45.612844 0 63.011444L580.491668 518.360179l287.756341 287.756342z"
                fill="#bfbfbf"></path>
        </svg>