   <svg version="1.1" id="音量" xmlns="http://www.w3.org/2000/svg"
                         xmlns:xlink="http://www.w3.org/1999/xlink" x="0px" y="0px"
                         width="100px" height="100px" viewBox="0 0 100 100"
                         xml:space="preserve">
                        <g stroke-width="9" fill="none" stroke-linejoin="round" stroke-linecap="round"
                           fill-rule="evenodd" stroke="#000000">
	<path d="M24.56,30.33H10.06c-4,0-7.24,3.24-7.24,7.24v23.76c0,4,3.24,7.24,7.24,7.24h14.49l20.01,20.01
		c0.95,0.95,2.48,0.95,3.43,0c0.45-0.45,0.71-1.07,0.71-1.71V12.04c0-1.34-1.09-2.42-2.42-2.42c-0.64,0-1.26,0.26-1.71,0.71
		L24.56,30.33z M82.69,15.65C91.85,24.51,97.02,36.71,97,49.45c0.02,12.75-5.15,24.95-14.31,33.81 M68.02,27.61
		c5.96,5.57,9.66,13.3,9.66,21.84c0,8.43-3.61,16.07-9.44,21.63"/>
</g>
</svg>